<svg width="50" height="50" viewBox="0 0 50 50" fill="none" xmlns="http://www.w3.org/2000/svg">
<path fill-rule="evenodd" clip-rule="evenodd" d="M50 25.5555C50 23.4999 49.8299 21.9999 49.4619 20.4444H25.5259V29.7221H39.5757C39.2926 32.0277 37.763 35.4999 34.3636 37.8332L34.3161 38.1438L41.8841 43.8932L42.4085 43.9445C47.2239 39.5834 50 33.1667 50 25.5555Z" fill="#4285F4"/>
<path fill-rule="evenodd" clip-rule="evenodd" d="M25.5102 50C32.3978 50 38.18 47.7777 42.4036 43.9445L34.3536 37.8332C32.1994 39.3054 29.3083 40.3332 25.5102 40.3332C18.7642 40.3332 13.0386 35.9723 10.9976 29.9445L10.6985 29.9694L2.82396 35.9417L2.72095 36.2222C6.91589 44.3888 15.5328 50 25.5102 50Z" fill="#34A853"/>
<path fill-rule="evenodd" clip-rule="evenodd" d="M10.9976 29.9332C10.4591 28.3788 10.1473 26.7132 10.1473 24.9922C10.1473 23.2711 10.4589 21.6056 10.9692 20.0512L10.955 19.7201L2.9819 13.656L2.72109 13.7776C0.992111 17.1642 0.00012207 20.967 0.00012207 24.9921C0.00012207 29.0171 0.992264 32.8198 2.72109 36.2064L10.9977 29.9331L10.9976 29.9332Z" fill="#FBBC04"/>
<path fill-rule="evenodd" clip-rule="evenodd" d="M25.5102 9.66661C30.3004 9.66661 33.5315 11.6945 35.3741 13.389L42.5736 6.50011C38.152 2.4723 32.3978 0.000152588 25.5102 0.000152588C15.5328 0.000152588 6.91605 5.61121 2.72095 13.7778L10.9693 20.0558C13.0386 14.028 18.7642 9.66676 25.5102 9.66676V9.66661Z" fill="#EA4335"/>
</svg>
